# xmcd CD database file
#
# Track frame offsets:
#	150
#	16179
#	28986
#	43028
#	59431
#	73866
#	86139
#	99434
#	114642
#	126851
#	139222
#	153634
#	175549
#
# Disc length: 2576 seconds
#
# Revision: 1
# Processed by: cddbd v1.4PL0 Copyright (c) Steve Scherf et al.
# Submitted via: NotifyCDPlayer 1.60beta13
#
DISCID=b60a0e0d
DTITLE=Local Jack - Death is a Sexless Thing
DYEAR=1900
DGENRE=
TTITLE0=Death Letter
TTITLE1=Travellin' Riverside Blues
TTITLE2=Two Trains Runnin'
TTITLE3=Empire State Express
TTITLE4=Terraplane Blues
TTITLE5=Gonna Miss Me When I'm Gone
TTITLE6=If I Had Possession Over Judgement Day
TTITLE7=Texas Tornado
TTITLE8=Milkcow's Calf Blues
TTITLE9=Stop Brekain' Down Blues
TTITLE10=Bumble Bee Blues
TTITLE11=30 Days in Jail
TTITLE12=Come on In My Kitchen
EXTD=
EXTT0=
EXTT1=
EXTT2=
EXTT3=
EXTT4=
EXTT5=
EXTT6=
EXTT7=
EXTT8=
EXTT9=
EXTT10=
EXTT11=
EXTT12=
PLAYORDER=
